<svg id="Layer_1" data-name="Layer 1" xmlns="http://www.w3.org/2000/svg" viewBox="0 0 300 60"><title>modalTitle</title><path d="M6,21.37,9.3,55.71a1.62,1.62,0,0,0,1.57,1.57c45.73,1.87,91.5,1.67,137.26,1.47,22.54-.1,45.09-.19,67.64,0q16.91.13,33.82.5c11,.25,22.16,1.17,33.19,1,9.68-.11,10.38-7.53,11-15.61a111.84,111.84,0,0,0-1.81-30c-.39-2-3.42-1.14-3,.84a106,106,0,0,1,1.91,25.69c-.24,4.92.38,14.2-5.55,15.68-4.48,1.12-10.22-.09-14.79-.25-20.88-.72-41.77-1-62.66-1.14-41.77-.22-83.55.38-125.32.13-23.88-.14-47.75-.57-71.61-1.54l1.57,1.57L9.1,21.37c-.19-2-3.34-2-3.14,0Z" fill="#40a629"/><path d="M288.62,10.71Q185.57,5.33,82.42,2.19,53,1.3,23.62.59c-2,0-2,3.1,0,3.14Q126.78,6.23,229.87,11q29.38,1.35,58.75,2.89c2,.11,2-3,0-3.14Z" fill="#40a629"/></svg>